<svg xmlns="http://www.w3.org/2000/svg" xmlns:xlink="http://www.w3.org/1999/xlink" width="188.423523" height="136.473724" viewBox="0 0 188.424 136.474"><path d="M33.4111 74.1413L38.3342 71.1626L65.972 71.1626L65.972 76.4497L29.5958 76.4497L33.4111 74.1413ZM34.6991 76.2701L34.0551 75.2057L34.0551 73.9617L64.728 73.9617L64.728 75.2057L63.484 75.2057L63.484 72.4067L64.728 72.4067L64.728 73.6507L38.6813 73.6507L38.6813 72.4067L39.3253 73.471L34.6991 76.2701ZM24.2443 79.7347L29.2423 76.7607L65.972 76.7607L65.972 82.0478L20.357 82.0478L24.2443 79.7347ZM25.5166 81.8729L24.8804 80.8038L24.8804 79.5598L64.728 79.5598L64.728 80.8038L63.484 80.8038L63.484 78.0048L64.728 78.0048L64.728 79.2488L29.5844 79.2488L29.5844 78.0048L30.2205 79.0738L25.5166 81.8729ZM14.9569 85.3305L19.9923 82.3588L65.972 82.3588L65.972 87.6459L11.0336 87.6459L14.9569 85.3305ZM16.2214 87.4733L15.5891 86.4019L15.5891 85.1579L64.728 85.1579L64.728 86.4019L63.484 86.4019L63.484 83.6029L64.728 83.6029L64.728 84.8469L20.332 84.8469L20.332 83.6029L20.9642 84.6742L16.2214 87.4733ZM34.3881 45.4806L29.4649 48.4593L1.82716 48.4593L1.82716 43.1722L38.2033 43.1722L34.3881 45.4806ZM33.1001 43.3518L33.7441 44.4162L33.7441 45.6602L3.07118 45.6602L3.07118 44.4162L4.3152 44.4162L4.3152 47.2152L3.07118 47.2152L3.07118 45.9712L29.1179 45.9712L29.1179 47.2152L28.4739 46.1509L33.1001 43.3518ZM43.5549 39.8872L38.5569 42.8612L1.82716 42.8612L1.82716 37.5741L47.4422 37.5741L43.5549 39.8872ZM42.2826 37.749L42.9187 38.8181L42.9187 40.0621L3.07118 40.0621L3.07118 38.8181L4.3152 38.8181L4.3152 41.6171L3.07118 41.6171L3.07118 40.3731L38.2148 40.3731L38.2148 41.6171L37.5786 40.5481L42.2826 37.749ZM52.8423 34.2914L47.8069 37.2631L1.82716 37.2631L1.82716 31.976L56.7656 31.976L52.8423 34.2914ZM51.5777 32.1486L52.21 33.22L52.21 34.464L3.07118 34.464L3.07118 33.22L4.3152 33.22L4.3152 36.019L3.07118 36.019L3.07118 34.775L47.4672 34.775L47.4672 36.019L46.8349 34.9477L51.5777 32.1486ZM65.972 34.1919L65.972 38.1202L1.82716 81.234L1.82716 74.9706L65.972 31.8568L65.972 34.1919ZM63.484 34.1919L64.728 34.1919L65.4219 35.2244L3.76514 76.6658L3.07118 75.6333L4.3152 75.6333L4.3152 78.8989L3.07118 78.8989L2.37722 77.8664L64.034 36.425L64.728 37.4574L63.484 37.4574L63.484 34.1919ZM65.972 40.8008L65.972 44.7683L1.82716 87.8416L1.82716 81.501L65.972 38.4681L65.972 40.8008ZM63.484 40.8008L64.728 40.8008L65.421 41.8338L3.76424 83.1975L3.07118 82.1645L4.3152 82.1645L4.3152 85.5078L3.07118 85.5078L2.37767 84.475L64.0345 43.0724L64.728 44.1052L63.484 44.1052L63.484 40.8008ZM65.972 47.3707L65.972 51.2998L7.92383 90.2341L7.23087 89.201L7.23087 87.9569L65.972 87.9569L65.972 93.244L1.82716 93.244L1.82716 88.0318L65.972 45.0393L65.972 47.3707ZM63.484 47.3707L64.728 47.3707L65.4206 48.4041L3.76379 89.729L3.07118 88.6956L4.3152 88.6956L4.3152 92L3.07118 92L3.07118 90.756L64.728 90.756L64.728 92L63.484 92L63.484 89.201L64.728 89.201L64.728 90.445L3.14282 90.445L64.035 49.6031L64.728 50.6363L63.484 50.6363L63.484 47.3707ZM60.5683 31.665L1.82716 31.665L1.82716 26.3779L65.972 26.3779L65.972 31.629L1.82716 74.6214L1.82716 68.4006L59.8744 29.3885L60.5683 30.421L60.5683 31.665ZM64.6495 29.1769L3.7651 70.0959L3.07118 69.0634L4.3152 69.0634L4.3152 72.29L3.07118 72.29L2.37856 71.2567L64.0354 29.9318L64.728 30.9652L63.484 30.9652L63.484 27.6219L64.728 27.6219L64.728 28.8659L3.07118 28.8659L3.07118 27.6219L4.3152 27.6219L4.3152 30.421L3.07118 30.421L3.07118 29.1769L60.5683 29.1769L64.6495 29.1769ZM34.0551 75.2057L38.6813 72.4067L64.728 72.4067L64.728 75.2057L34.0551 75.2057ZM24.8804 80.8038L29.5844 78.0048L64.728 78.0048L64.728 80.8038L24.8804 80.8038ZM15.5891 86.4019L20.332 83.6029L64.728 83.6029L64.728 86.4019L15.5891 86.4019ZM33.7441 44.4162L29.1179 47.2152L3.07118 47.2152L3.07118 44.4162L33.7441 44.4162ZM42.9187 38.8181L38.2148 41.6171L3.07118 41.6171L3.07118 38.8181L42.9187 38.8181ZM52.21 33.22L47.4672 36.019L3.07118 36.019L3.07118 33.22L52.21 33.22ZM64.728 34.1919L64.728 37.4574L3.07118 78.8989L3.07118 75.6333L64.728 34.1919ZM64.728 40.8008L64.728 44.1052L3.07118 85.5078L3.07118 82.1645L64.728 40.8008ZM64.728 47.3707L64.728 50.6363L7.23087 89.201L64.728 89.201L64.728 92L3.07118 92Q3.07118 92 3.07118 88.6956L64.728 47.3707ZM60.5683 30.421L3.07118 30.421L3.07118 27.6219L64.728 27.6219Q64.728 27.6219 64.728 30.9652L3.07118 72.29L3.07118 69.0634L60.5683 30.421ZM74.5956 79.2488L68.5699 79.2488L68.5699 73.9617L74.5956 73.9617Q76.102 73.9617 77.1308 72.8185Q78.211 71.6183 78.211 69.5299L78.211 26.3779L83.4981 26.3779L83.4981 69.5299Q83.4981 73.7109 80.9506 76.4595Q78.3654 79.2488 74.5956 79.2488ZM74.5956 76.7607Q77.2791 76.7607 79.1258 74.7683Q81.0101 72.7352 81.0101 69.5299L81.0101 27.6219L82.2541 27.6219L82.2541 28.8659L79.455 28.8659L79.455 27.6219L80.6991 27.6219L80.6991 69.5299Q80.6991 72.573 78.9802 74.4829Q77.21 76.4497 74.5956 76.4497L69.8139 76.4497L69.8139 75.2057L71.0579 75.2057L71.0579 78.0048L69.8139 78.0048L69.8139 76.7607L74.5956 76.7607ZM74.5956 84.8469L68.5699 84.8469L68.5699 79.5598L74.5956 79.5598Q78.4052 79.5598 81.0875 76.6554Q83.8091 73.7084 83.8091 69.5299L83.8091 26.3779L89.0962 26.3779L89.0962 69.5299Q89.0962 75.8536 84.8911 80.3334Q80.6544 84.8469 74.5956 84.8469ZM74.5956 82.3588Q79.5774 82.3588 83.077 78.6306Q86.6082 74.8688 86.6082 69.5299L86.6082 27.6219L87.8522 27.6219L87.8522 28.8659L85.0531 28.8659L85.0531 27.6219L86.2972 27.6219L86.2972 69.5299Q86.2972 74.6815 82.9153 78.3434Q79.4942 82.0478 74.5956 82.0478L69.8139 82.0478L69.8139 80.8038L71.0579 80.8038L71.0579 83.6029L69.8139 83.6029L69.8139 82.3588L74.5956 82.3588ZM74.5956 90.445L68.5699 90.445L68.5699 85.1579L74.5956 85.1579Q80.7477 85.1579 85.0643 80.6084Q89.4072 76.0312 89.4072 69.5299L89.4072 26.3779L94.6943 26.3779L94.6943 69.5299Q94.6943 75.1772 92.0312 79.9874Q89.3635 84.8057 84.7269 87.6208Q80.0753 90.445 74.5956 90.445ZM74.5956 87.9569Q79.3791 87.9569 83.4356 85.494Q87.5071 83.0221 89.8545 78.7823Q92.2063 74.5344 92.2063 69.5299L92.2063 27.6219L93.4503 27.6219L93.4503 28.8659L90.6512 28.8659L90.6512 27.6219L91.8953 27.6219L91.8953 69.5299Q91.8953 77.0237 86.8692 82.321Q81.8167 87.6459 74.5956 87.6459L69.8139 87.6459L69.8139 86.4019L71.0579 86.4019L71.0579 89.201L69.8139 89.201L69.8139 87.9569L74.5956 87.9569ZM74.5956 96.0431L68.5699 96.0431L68.5699 90.756L74.5956 90.756Q78.7622 90.756 82.5243 89.0758Q86.307 87.3865 89.0352 84.5484Q91.7676 81.706 93.3883 77.7649Q95.0053 73.8325 95.0053 69.5299L95.0053 26.3779L100.292 26.3779L100.292 69.5299Q100.292 74.908 98.2741 79.8009Q96.2593 84.6852 92.8096 88.2574Q89.3554 91.8342 84.6037 93.9348Q79.8344 96.0431 74.5956 96.0431ZM74.5956 93.555Q79.309 93.555 83.5977 91.6591Q87.904 89.7555 91.0198 86.5291Q94.1401 83.298 95.974 78.8521Q97.8044 74.4149 97.8044 69.5299L97.8044 27.6219L99.0484 27.6219L99.0484 28.8659L96.2493 28.8659L96.2493 27.6219L97.4934 27.6219L97.4934 69.5299Q97.4934 74.3241 95.6893 78.7111Q93.8889 83.0894 90.8289 86.2727Q87.7645 89.4604 83.5389 91.3476Q79.2926 93.244 74.5956 93.244L69.8139 93.244L69.8139 92L71.0579 92L71.0579 94.799L69.8139 94.799L69.8139 93.555L74.5956 93.555ZM74.5956 78.0048L69.8139 78.0048L69.8139 75.2057L74.5956 75.2057Q76.656 75.2057 78.0555 73.6507Q79.455 72.0957 79.455 69.5299L79.455 27.6219L82.2541 27.6219L82.2541 69.5299Q82.2541 73.2231 80.0382 75.6139Q77.8223 78.0048 74.5956 78.0048ZM74.5956 83.6029L69.8139 83.6029L69.8139 80.8038L74.5956 80.8038Q78.9497 80.8038 82.0014 77.4994Q85.0531 74.1949 85.0531 69.5299L85.0531 27.6219L87.8522 27.6219L87.8522 69.5299Q87.8522 75.3612 83.9841 79.482Q80.1159 83.6029 74.5956 83.6029ZM74.5956 89.201L69.8139 89.201L69.8139 86.4019L74.5956 86.4019Q81.2822 86.4019 85.9667 81.4647Q90.6512 76.5275 90.6512 69.5299L90.6512 27.6219L93.4503 27.6219L93.4503 69.5299Q93.4503 74.8558 90.9428 79.3848Q88.4353 83.9139 84.0813 86.5574Q79.7272 89.201 74.5956 89.201ZM74.5956 94.799L69.8139 94.799L69.8139 92L74.5956 92Q79.0274 92 83.0316 90.2117Q87.0358 88.4234 89.932 85.4106Q92.8283 82.3977 94.5388 78.238Q96.2493 74.0783 96.2493 69.5299L96.2493 27.6219L99.0484 27.6219L99.0484 69.5299Q99.0484 74.6615 97.124 79.3265Q95.1997 83.9916 91.9147 87.3932Q88.6297 90.7949 84.1007 92.797Q79.5717 94.799 74.5956 94.799ZM127.346 58.7224L144.218 58.7224Q147.576 58.7224 149.881 56.5694Q152.149 54.4502 152.149 50.403Q152.149 47.5491 149.73 45.2141Q147.293 42.8612 144.218 42.8612L120.193 42.8612L120.193 41.6171L121.437 41.6171L121.437 93.244L116.15 93.244L116.15 37.5741L144.218 37.5741Q149.467 37.5741 153.444 41.4448Q157.436 45.3293 157.436 50.403Q157.436 56.5288 153.558 60.2778Q149.698 64.0095 144.218 64.0095L126.102 64.0095L126.102 58.7224L127.346 58.7224ZM127.346 61.2105L127.346 59.9665L128.59 59.9665L128.59 62.7655L127.346 62.7655L127.346 61.5215L144.218 61.5215Q148.692 61.5215 151.829 58.4889Q154.948 55.4734 154.948 50.403Q154.948 46.3798 151.709 43.2279Q148.456 40.0621 144.218 40.0621L117.394 40.0621L117.394 38.8181L118.638 38.8181L118.638 92L117.394 92L117.394 90.756L120.193 90.756L120.193 92L118.949 92L118.949 40.3731L144.218 40.3731Q148.297 40.3731 151.458 43.4239Q154.637 46.4926 154.637 50.403Q154.637 55.5306 151.579 58.3874Q148.558 61.2105 144.218 61.2105L127.346 61.2105ZM127.346 64.3205L144.218 64.3205Q149.776 64.3205 153.767 60.4181Q157.747 56.5272 157.747 50.403Q157.747 45.2133 153.672 41.2449Q149.583 37.2631 144.218 37.2631L114.595 37.2631L114.595 36.019L115.839 36.019L115.839 93.244L110.552 93.244L110.552 31.976L144.218 31.976Q149.181 31.976 153.534 34.517Q157.87 37.0481 160.444 41.3037Q163.034 45.5853 163.034 50.403Q163.034 58.5796 157.477 64.0955Q151.923 69.6076 144.218 69.6076L126.102 69.6076L126.102 64.3205L127.346 64.3205ZM127.346 66.8086L127.346 65.5646L128.59 65.5646L128.59 68.3636L127.346 68.3636L127.346 67.1196L144.218 67.1196Q150.898 67.1196 155.724 62.3296Q160.546 57.5435 160.546 50.403Q160.546 46.2793 158.315 42.5914Q156.069 38.8776 152.28 36.6658Q148.508 34.464 144.218 34.464L111.796 34.464L111.796 33.22L113.04 33.22L113.04 92L111.796 92L111.796 90.756L114.595 90.756L114.595 92L113.351 92L113.351 34.775L144.218 34.775Q150.594 34.775 155.408 39.4624Q160.235 44.1633 160.235 50.403Q160.235 57.5743 155.507 62.1972Q150.79 66.8086 144.218 66.8086L127.346 66.8086ZM127.346 69.9186L144.218 69.9186Q149.329 69.9186 153.706 67.4018Q158.084 64.8847 160.716 60.3701Q163.345 55.8594 163.345 50.403Q163.345 45.5011 160.745 41.1908Q158.128 36.8544 153.697 34.2541Q149.284 31.665 144.218 31.665L108.997 31.665L108.997 30.421L110.241 30.421L110.241 93.244L104.954 93.244L104.954 26.3779L144.218 26.3779Q150.658 26.3779 156.314 29.6768Q161.953 32.9668 165.286 38.5073Q168.632 44.0709 168.632 50.403Q168.632 57.6509 165.497 63.1844Q162.356 68.7261 156.972 71.8499L156.348 70.7739L157.525 70.3727L165.317 93.244L159.739 93.244L152.529 72.5042L153.704 72.0957L154.166 73.2507Q152.552 73.8963 151.674 74.1471L151.333 72.9509L152.51 72.5496L159.563 93.244L153.983 93.244L147.357 74.0171L148.534 73.6118L148.803 74.8262Q148.376 74.9213 146.158 75.1229L146.046 73.8839L147.226 73.4913L153.796 93.244L148.217 93.244L141.987 74.3513L143.169 73.9617L143.169 75.2057L140.642 75.2057L140.642 73.9617L141.829 73.5883L148.013 93.244L142.452 93.244L136.463 74.3374L137.648 73.9617L137.648 75.2057L126.102 75.2057L126.102 69.9186L127.346 69.9186ZM127.346 72.4067L127.346 71.1626L128.59 71.1626L128.59 73.9617L127.346 73.9617L127.346 72.7177L138.559 72.7177L144.549 91.6243L143.363 92L143.363 90.756L146.318 90.756L146.318 92L145.131 92.3734L138.946 72.7177L144.068 72.7177L150.298 91.6104L149.117 92L149.117 90.756L152.071 90.756L152.071 92L150.891 92.3926L144.37 72.7871L145.933 72.645Q147.992 72.4579 148.264 72.3974L149.348 72.1565L156.047 91.5947L154.87 92L154.87 90.756L157.825 90.756L157.825 92L156.647 92.4013L149.733 72.1141L150.991 71.7548Q151.746 71.539 153.242 70.9406L154.451 70.4569L161.799 91.5915L160.624 92L160.624 90.756L163.579 90.756L163.579 92L162.401 92.4011L154.841 70.2096L155.723 69.6978Q160.524 66.9126 163.332 61.9578Q166.144 56.9949 166.144 50.403Q166.144 44.7615 163.154 39.7897Q160.15 34.795 155.06 31.826Q149.986 28.8659 144.218 28.8659L106.198 28.8659L106.198 27.6219L107.442 27.6219L107.442 92L106.198 92L106.198 90.756L108.997 90.756L108.997 92L107.753 92L107.753 29.1769L144.218 29.1769Q149.96 29.1769 154.956 32.1082Q159.932 35.0282 162.875 39.9054Q165.833 44.8086 165.833 50.403Q165.833 56.5317 162.865 61.6232Q159.899 66.7109 154.946 69.5587Q149.993 72.4067 144.218 72.4067L127.346 72.4067ZM125.791 93.244L121.748 93.244L121.748 43.1722L144.218 43.1722Q147.315 43.1722 149.56 45.2778Q151.838 47.4152 151.838 50.403Q151.838 58.4114 144.218 58.4114L126.102 58.4114L126.102 53.1243L144.218 53.1243Q145.406 53.1243 146.001 52.5774Q146.551 52.0724 146.551 50.403Q146.551 49.6019 145.939 49.0596Q145.262 48.4593 144.218 48.4593L125.791 48.4593L125.791 47.2152L127.035 47.2152L127.035 93.244L125.791 93.244ZM125.791 90.756L125.791 92L124.547 92L124.547 45.9712L144.218 45.9712Q146.207 45.9712 147.59 47.1981Q149.039 48.4829 149.039 50.403Q149.039 53.1655 147.684 54.4099Q146.375 55.6124 144.218 55.6124L127.346 55.6124L127.346 54.3684L128.59 54.3684L128.59 57.1674L127.346 57.1674L127.346 55.9234L144.218 55.9234Q149.35 55.9234 149.35 50.403Q149.35 48.4926 147.857 47.0923Q146.331 45.6602 144.218 45.6602L122.992 45.6602L122.992 44.4162L124.236 44.4162L124.236 92L122.992 92L122.992 90.756L125.791 90.756ZM127.346 59.9665L144.218 59.9665Q148.067 59.9665 150.73 57.4784Q153.393 54.9904 153.393 50.403Q153.393 47.0209 150.594 44.319Q147.795 41.6171 144.218 41.6171L120.193 41.6171L120.193 92L117.394 92L117.394 38.8181L144.218 38.8181Q148.961 38.8181 152.577 42.3363Q156.192 45.8546 156.192 50.403Q156.192 56.0011 152.693 59.3833Q149.195 62.7655 144.218 62.7655L127.346 62.7655L127.346 59.9665ZM127.346 65.5646L144.218 65.5646Q150.283 65.5646 154.637 61.3077Q158.991 57.0508 158.991 50.403Q158.991 44.6883 154.54 40.3537Q150.089 36.019 144.218 36.019L114.595 36.019L114.595 92L111.796 92L111.796 33.22L144.218 33.22Q148.845 33.22 152.907 35.5914Q156.97 37.9628 159.38 41.9476Q161.79 45.9323 161.79 50.403Q161.79 58.0615 156.6 63.2126Q151.41 68.3636 144.218 68.3636L127.346 68.3636L127.346 65.5646ZM127.346 71.1626L144.218 71.1626Q149.661 71.1626 154.326 68.4802Q158.991 65.7978 161.79 60.9967Q164.589 56.1955 164.589 50.403Q164.589 45.1548 161.81 40.5481Q159.03 35.9413 154.326 33.1811Q149.622 30.421 144.218 30.421L108.997 30.421L108.997 92L106.198 92L106.198 27.6219L144.218 27.6219Q150.322 27.6219 155.687 30.7514Q161.052 33.8809 164.22 39.1485Q167.388 44.4162 167.388 50.403Q167.388 57.3229 164.414 62.5711Q161.44 67.8193 156.348 70.7739L163.579 92L160.624 92L153.704 72.0957Q152.149 72.7177 151.333 72.9509L157.825 92L154.87 92L148.534 73.6118Q148.184 73.6896 146.046 73.8839L152.071 92L149.117 92L143.169 73.9617L140.642 73.9617L146.318 92L143.363 92L137.648 73.9617L127.346 73.9617L127.346 71.1626ZM125.791 92L122.992 92L122.992 44.4162L144.218 44.4162Q146.823 44.4162 148.709 46.185Q150.594 47.9539 150.594 50.403Q150.594 57.1674 144.218 57.1674L127.346 57.1674L127.346 54.3684L144.218 54.3684Q145.89 54.3684 146.843 53.4937Q147.795 52.619 147.795 50.403Q147.795 49.0424 146.765 48.1288Q145.735 47.2152 144.218 47.2152L125.791 47.2152L125.791 92Z" fill="#F5F5F5" fill-opacity="1.000000" transform="matrix(1 0 0 1 6.23688 6.23686)"/></svg>