<svg width="172" height="72" xmlns="http://www.w3.org/2000/svg">

 <g>
  <title>Layer 1</title>
  <g>
   <path transform="matrix(1 0 0 1 6.23688 6.23686)" fill="#F5F5F5" d="m27.94464,42.69394l4.9231,-2.9787l27.6378,0l0,5.2871l-36.3762,0l3.8153,-2.3084zm1.288,2.1288l-0.644,-1.0644l0,-1.244l30.6729,0l0,1.244l-1.244,0l0,-2.799l1.244,0l0,1.244l-26.0467,0l0,-1.244l0.644,1.0643l-4.6262,2.7991zm-10.4548,3.4646l4.998,-2.974l36.7297,0l0,5.2871l-45.615,0l3.8873,-2.3131zm1.2723,2.1382l-0.6362,-1.0691l0,-1.244l39.8476,0l0,1.244l-1.244,0l0,-2.799l1.244,0l0,1.244l-35.1436,0l0,-1.244l0.6361,1.069l-4.7039,2.7991zm-10.5597,3.4576l5.0354,-2.9717l45.9797,0l0,5.2871l-54.9384,0l3.9233,-2.3154zm1.2645,2.1428l-0.6323,-1.0714l0,-1.244l49.1389,0l0,1.244l-1.244,0l0,-2.799l1.244,0l0,1.244l-44.396,0l0,-1.244l0.6322,1.0713l-4.7428,2.7991zm18.1667,-41.9927l-4.9232,2.9787l-27.63774,0l0,-5.2871l36.37614,0l-3.8152,2.3084zm-1.288,-2.1288l0.644,1.0644l0,1.244l-30.67292,0l0,-1.244l1.24402,0l0,2.799l-1.24402,0l0,-1.244l26.04672,0l0,1.244l-0.644,-1.0643l4.6262,-2.7991zm10.4548,-3.4646l-4.998,2.974l-36.72974,0l0,-5.2871l45.61504,0l-3.8873,2.3131zm-1.2723,-2.1382l0.6361,1.0691l0,1.244l-39.84752,0l0,-1.244l1.24402,0l0,2.799l-1.24402,0l0,-1.244l35.14362,0l0,1.244l-0.6362,-1.069l4.704,-2.7991zm10.5597,-3.4576l-5.0354,2.9717l-45.97974,0l0,-5.2871l54.93844,0l-3.9233,2.3154zm-1.2646,-2.1428l0.6323,1.0714l0,1.244l-49.13882,0l0,-1.244l1.24402,0l0,2.799l-1.24402,0l0,-1.244l44.39602,0l0,1.244l-0.6323,-1.0713l4.7428,-2.7991zm14.3943,2.0433l0,3.9283l-64.14484,43.1138l0,-6.2634l64.14484,-43.1138l0,2.3351zm-2.488,0l1.244,0l0.6939,1.0325l-61.65676,41.4414l-0.69396,-1.0325l1.24402,0l0,3.2656l-1.24402,0l-0.69396,-1.0325l61.65678,-41.4414l0.694,1.0324l-1.244,0l0,-3.2655zm2.488,6.6089l0,3.9675l-64.14484,43.0733l0,-6.3406l64.14484,-43.0329l0,2.3327zm-2.488,0l1.244,0l0.693,1.033l-61.65676,41.3637l-0.69306,-1.033l1.24402,0l0,3.3433l-1.24402,0l-0.69351,-1.0328l61.65683,-41.4026l0.6935,1.0328l-1.244,0l0,-3.3044zm2.488,6.5699l0,3.9291l-58.04817,38.9343l-0.69296,-1.0331l0,-1.2441l58.74113,0l0,5.2871l-64.14484,0l0,-5.2122l64.14484,-42.9925l0,2.3314zm-2.488,0l1.244,0l0.6926,1.0334l-61.65681,41.3249l-0.69261,-1.0334l1.24402,0l0,3.3044l-1.24402,0l0,-1.244l61.65682,0l0,1.244l-1.244,0l0,-2.799l1.244,0l0,1.244l-61.58518,0l60.89218,-40.8419l0.693,1.0332l-1.244,0l0,-3.2656zm-2.9157,-15.7057l-58.74114,0l0,-5.2871l64.14484,0l0,5.2511l-64.14484,42.9924l0,-6.2208l58.04724,-39.0121l0.6939,1.0325l0,1.244zm4.0812,-2.4881l-60.8844,40.919l-0.69392,-1.0325l1.24402,0l0,3.2266l-1.24402,0l-0.69262,-1.0333l61.65684,-41.3249l0.6926,1.0334l-1.244,0l0,-3.3433l1.244,0l0,1.244l-61.65682,0l0,-1.244l1.24402,0l0,2.7991l-1.24402,0l0,-1.2441l57.49712,0l4.0812,0zm-30.5944,46.0288l4.6262,-2.799l26.0467,0l0,2.799l-30.6729,0zm-9.1747,5.5981l4.704,-2.799l35.1436,0l0,2.799l-39.8476,0zm-9.2913,5.5981l4.7429,-2.799l44.396,0l0,2.799l-49.1389,0zm18.155,-41.9857l-4.6262,2.799l-26.04672,0l0,-2.799l30.67292,0zm9.1746,-5.5981l-4.7039,2.799l-35.14362,0l0,-2.799l39.84752,0zm9.2913,-5.5981l-4.7428,2.799l-44.39602,0l0,-2.799l49.13882,0zm12.518,0.9719l0,3.2655l-61.65682,41.4415l0,-3.2656l61.65682,-41.4414zm0,6.6089l0,3.3044l-61.65682,41.4026l0,-3.3433l61.65682,-41.3637zm0,6.5699l0,3.2656l-57.49713,38.5647l57.49713,0l0,2.799l-61.65682,0q0,0 0,-3.3044l61.65682,-41.3249zm-4.1597,-16.9497l-57.49712,0l0,-2.7991l61.65682,0q0,0 0,3.3433l-61.65682,41.3248l0,-3.2266l57.49712,-38.6424zm14.0273,48.8278l-6.0257,0l0,-5.2871l6.0257,0q1.5064,0 2.5352,-1.1432q1.0802,-1.2002 1.0802,-3.2886l0,-43.152l5.2871,0l0,43.152q0,4.181 -2.5475,6.9296q-2.5852,2.7893 -6.355,2.7893zm0,-2.4881q2.6835,0 4.5302,-1.9924q1.8843,-2.0331 1.8843,-5.2384l0,-41.908l1.244,0l0,1.244l-2.7991,0l0,-1.244l1.2441,0l0,41.908q0,3.0431 -1.7189,4.953q-1.7702,1.9668 -4.3846,1.9668l-4.7817,0l0,-1.244l1.244,0l0,2.7991l-1.244,0l0,-1.2441l4.7817,0zm0,8.0862l-6.0257,0l0,-5.2871l6.0257,0q3.8096,0 6.4919,-2.9044q2.7216,-2.947 2.7216,-7.1255l0,-43.152l5.2871,0l0,43.152q0,6.3237 -4.2051,10.8035q-4.2367,4.5135 -10.2955,4.5135zm0,-2.4881q4.9818,0 8.4814,-3.7282q3.5312,-3.7618 3.5312,-9.1007l0,-41.908l1.244,0l0,1.244l-2.7991,0l0,-1.244l1.2441,0l0,41.908q0,5.1516 -3.3819,8.8135q-3.4211,3.7044 -8.3197,3.7044l-4.7817,0l0,-1.244l1.244,0l0,2.7991l-1.244,0l0,-1.2441l4.7817,0zm0,8.0862l-6.0257,0l0,-5.2871l6.0257,0q6.1521,0 10.4687,-4.5495q4.3429,-4.5772 4.3429,-11.0785l0,-43.152l5.2871,0l0,43.152q0,5.6473 -2.6631,10.4575q-2.6677,4.8183 -7.3043,7.6334q-4.6516,2.8242 -10.1313,2.8242zm0,-2.4881q4.7835,0 8.84,-2.4629q4.0715,-2.4719 6.4189,-6.7117q2.3518,-4.2479 2.3518,-9.2524l0,-41.908l1.244,0l0,1.244l-2.7991,0l0,-1.244l1.2441,0l0,41.908q0,7.4938 -5.0261,12.7911q-5.0525,5.3249 -12.2736,5.3249l-4.7817,0l0,-1.244l1.244,0l0,2.7991l-1.244,0l0,-1.2441l4.7817,0zm0,8.0862l-6.0257,0l0,-5.2871l6.0257,0q4.1666,0 7.9287,-1.6802q3.7827,-1.6893 6.5109,-4.5274q2.7324,-2.8424 4.3531,-6.7835q1.617,-3.9324 1.617,-8.235l0,-43.152l5.2867,0l0,43.152q0,5.3781 -2.0179,10.271q-2.0148,4.8843 -5.4645,8.4565q-3.4542,3.5768 -8.2059,5.6774q-4.7693,2.1083 -10.0081,2.1083zm0,-2.4881q4.7134,0 9.0021,-1.8959q4.3063,-1.9036 7.4221,-5.13q3.1203,-3.2311 4.9542,-7.677q1.8304,-4.4372 1.8304,-9.3222l0,-41.908l1.244,0l0,1.244l-2.7991,0l0,-1.244l1.2441,0l0,41.908q0,4.7942 -1.8041,9.1812q-1.8004,4.3783 -4.8604,7.5616q-3.0644,3.1877 -7.29,5.0749q-4.2463,1.8964 -8.9433,1.8964l-4.7817,0l0,-1.244l1.244,0l0,2.799l-1.244,0l0,-1.244l4.7817,0zm0,-15.5502l-4.7817,0l0,-2.7991l4.7817,0q2.0604,0 3.4599,-1.555q1.3995,-1.555 1.3995,-4.1208l0,-41.908l2.7991,0l0,41.908q0,3.6932 -2.2159,6.084q-2.2159,2.3909 -5.4426,2.3909zm0,5.5981l-4.7817,0l0,-2.7991l4.7817,0q4.3541,0 7.4058,-3.3044q3.0517,-3.3045 3.0517,-7.9695l0,-41.908l2.7991,0l0,41.908q0,5.8313 -3.8681,9.9521q-3.8682,4.1209 -9.3885,4.1209zm0,5.5981l-4.7817,0l0,-2.7991l4.7817,0q6.6866,0 11.3711,-4.9372q4.6845,-4.9372 4.6845,-11.9348l0,-41.908l2.7991,0l0,41.908q0,5.3259 -2.5075,9.8549q-2.5075,4.5291 -6.8615,7.1726q-4.3541,2.6436 -9.4857,2.6436zm0,5.598l-4.7817,0l0,-2.799l4.7817,0q4.4318,0 8.436,-1.7883q4.0042,-1.7883 6.9004,-4.8011q2.8963,-3.0129 4.6068,-7.1726q1.7105,-4.1597 1.7105,-8.7081l0,-41.908l2.7991,0l0,41.908q0,5.1316 -1.9244,9.7966q-1.9243,4.6651 -5.2093,8.0667q-3.285,3.4017 -7.814,5.4038q-4.529,2.002 -9.5051,2.002zm52.7504,-36.0766l16.872,0q3.358,0 5.663,-2.153q2.268,-2.1192 2.268,-6.1664q0,-2.8539 -2.419,-5.1889q-2.437,-2.3529 -5.512,-2.3529l-24.025,0l0,-1.2441l1.244,0l0,51.6269l-5.287,0l0,-55.6699l28.068,0q5.249,0 9.226,3.8707q3.992,3.8845 3.992,8.9582q0,6.1258 -3.878,9.8748q-3.86,3.7317 -9.34,3.7317l-18.116,0l0,-5.2871l1.244,0zm0,2.4881l0,-1.244l1.244,0l0,2.799l-1.244,0l0,-1.244l16.872,0q4.474,0 7.611,-3.0326q3.119,-3.0155 3.119,-8.0859q0,-4.0232 -3.239,-7.1751q-3.253,-3.1658 -7.491,-3.1658l-26.824,0l0,-1.244l1.244,0l0,53.1819l-1.244,0l0,-1.244l2.799,0l0,1.244l-1.244,0l0,-51.6269l25.269,0q4.079,0 7.24,3.0508q3.179,3.0687 3.179,6.9791q0,5.1276 -3.058,7.9844q-3.021,2.8231 -7.361,2.8231l-16.872,0zm0,3.11l16.872,0q5.558,0 9.549,-3.9024q3.98,-3.8909 3.98,-10.0151q0,-5.1897 -4.075,-9.1581q-4.089,-3.9818 -9.454,-3.9818l-29.623,0l0,-1.2441l1.244,0l0,57.225l-5.287,0l0,-61.268l33.666,0q4.963,0 9.316,2.541q4.336,2.5311 6.91,6.7867q2.59,4.2816 2.59,9.0993q0,8.1766 -5.557,13.6925q-5.554,5.5121 -13.259,5.5121l-18.116,0l0,-5.2871l1.244,0zm0,2.4881l0,-1.244l1.244,0l0,2.799l-1.244,0l0,-1.244l16.872,0q6.68,0 11.506,-4.79q4.822,-4.7861 4.822,-11.9266q0,-4.1237 -2.231,-7.8116q-2.246,-3.7138 -6.035,-5.9256q-3.772,-2.2018 -8.062,-2.2018l-32.422,0l0,-1.244l1.244,0l0,58.78l-1.244,0l0,-1.244l2.799,0l0,1.244l-1.244,0l0,-57.225l30.867,0q6.376,0 11.19,4.6874q4.827,4.7009 4.827,10.9406q0,7.1713 -4.728,11.7942q-4.717,4.6114 -11.289,4.6114l-16.872,0zm0,3.11l16.872,0q5.111,0 9.488,-2.5168q4.378,-2.5171 7.01,-7.0317q2.629,-4.5107 2.629,-9.9671q0,-4.9019 -2.6,-9.2122q-2.617,-4.3364 -7.048,-6.9367q-4.413,-2.5891 -9.479,-2.5891l-35.221,0l0,-1.244l1.244,0l0,62.823l-5.287,0l0,-66.8661l39.264,0q6.44,0 12.096,3.2989q5.639,3.29 8.972,8.8305q3.346,5.5636 3.346,11.8957q0,7.2479 -3.135,12.7814q-3.141,5.5417 -8.525,8.6655l-0.624,-1.076l1.177,-0.4012l7.792,22.8713l-5.578,0l-7.21,-20.7398l1.175,-0.4085l0.462,1.155q-1.614,0.6456 -2.492,0.8964l-0.341,-1.1962l1.177,-0.4013l7.053,20.6944l-5.58,0l-6.626,-19.2269l1.177,-0.4053l0.269,1.2144q-0.427,0.0951 -2.645,0.2967l-0.112,-1.239l1.18,-0.3926l6.57,19.7527l-5.579,0l-6.23,-18.8927l1.182,-0.3896l0,1.244l-2.527,0l0,-1.244l1.187,-0.3734l6.184,19.6557l-5.561,0l-5.989,-18.9066l1.185,-0.3757l0,1.244l-11.546,0l0,-5.2871l1.244,0zm0,2.4881l0,-1.2441l1.244,0l0,2.7991l-1.244,0l0,-1.244l11.213,0l5.99,18.9066l-1.186,0.3757l0,-1.244l2.955,0l0,1.244l-1.187,0.3734l-6.185,-19.6557l5.122,0l6.23,18.8927l-1.181,0.3896l0,-1.244l2.954,0l0,1.244l-1.18,0.3926l-6.521,-19.6055l1.563,-0.1421q2.059,-0.1871 2.331,-0.2476l1.084,-0.2409l6.699,19.4382l-1.177,0.4053l0,-1.244l2.955,0l0,1.244l-1.178,0.4013l-6.914,-20.2872l1.258,-0.3593q0.755,-0.2158 2.251,-0.8142l1.209,-0.4837l7.348,21.1346l-1.175,0.4085l0,-1.244l2.955,0l0,1.244l-1.178,0.4011l-7.56,-22.1915l0.882,-0.5118q4.801,-2.7852 7.609,-7.74q2.812,-4.9629 2.812,-11.5548q0,-5.6415 -2.99,-10.6133q-3.004,-4.9947 -8.094,-7.9637q-5.074,-2.9601 -10.842,-2.9601l-38.02,0l0,-1.244l1.244,0l0,64.3781l-1.244,0l0,-1.244l2.799,0l0,1.244l-1.244,0l0,-62.8231l36.465,0q5.742,0 10.738,2.9313q4.976,2.92 7.919,7.7972q2.958,4.9032 2.958,10.4976q0,6.1287 -2.968,11.2202q-2.966,5.0877 -7.919,7.9355q-4.953,2.848 -10.728,2.848l-16.872,0zm-1.555,20.8373l-4.043,0l0,-50.0718l22.47,0q3.097,0 5.342,2.1056q2.278,2.1374 2.278,5.1252q0,8.0084 -7.62,8.0084l-18.116,0l0,-5.2871l18.116,0q1.188,0 1.783,-0.5469q0.55,-0.505 0.55,-2.1744q0,-0.8011 -0.612,-1.3434q-0.677,-0.6003 -1.721,-0.6003l-18.427,0l0,-1.2441l1.244,0l0,46.0288l-1.244,0zm0,-2.488l0,1.244l-1.244,0l0,-46.0288l19.671,0q1.989,0 3.372,1.2269q1.449,1.2848 1.449,3.2049q0,2.7625 -1.355,4.0069q-1.309,1.2025 -3.466,1.2025l-16.872,0l0,-1.244l1.244,0l0,2.799l-1.244,0l0,-1.244l16.872,0q5.132,0 5.132,-5.5204q0,-1.9104 -1.493,-3.3107q-1.526,-1.4321 -3.639,-1.4321l-21.226,0l0,-1.244l1.244,0l0,47.5838l-1.244,0l0,-1.244l2.799,0zm1.555,-30.7895l16.872,0q3.849,0 6.512,-2.4881q2.663,-2.488 2.663,-7.0754q0,-3.3821 -2.799,-6.084q-2.799,-2.7019 -6.376,-2.7019l-24.025,0l0,50.3829l-2.799,0l0,-53.1819l26.824,0q4.743,0 8.359,3.5182q3.615,3.5183 3.615,8.0667q0,5.5981 -3.499,8.9803q-3.498,3.3822 -8.475,3.3822l-16.872,0l0,-2.799zm0,5.5981l16.872,0q6.065,0 10.419,-4.2569q4.354,-4.2569 4.354,-10.9047q0,-5.7147 -4.451,-10.0493q-4.451,-4.3347 -10.322,-4.3347l-29.623,0l0,55.981l-2.799,0l0,-58.78l32.422,0q4.627,0 8.689,2.3714q4.063,2.3714 6.473,6.3562q2.41,3.9847 2.41,8.4554q0,7.6585 -5.19,12.8096q-5.19,5.151 -12.382,5.151l-16.872,0l0,-2.799zm0,5.598l16.872,0q5.443,0 10.108,-2.6824q4.665,-2.6824 7.464,-7.4835q2.799,-4.8012 2.799,-10.5937q0,-5.2482 -2.779,-9.8549q-2.78,-4.6068 -7.484,-7.367q-4.704,-2.7601 -10.108,-2.7601l-35.221,0l0,61.579l-2.799,0l0,-64.3781l38.02,0q6.104,0 11.469,3.1295q5.365,3.1295 8.533,8.3971q3.168,5.2677 3.168,11.2545q0,6.9199 -2.974,12.1681q-2.974,5.2482 -8.066,8.2028l7.231,21.2261l-2.955,0l-6.92,-19.9043q-1.555,0.622 -2.371,0.8552l6.492,19.0491l-2.955,0l-6.336,-18.3882q-0.35,0.0778 -2.488,0.2721l6.025,18.1161l-2.954,0l-5.948,-18.0383l-2.527,0l5.676,18.0383l-2.955,0l-5.715,-18.0383l-10.302,0l0,-2.7991zm-1.555,20.8374l-2.799,0l0,-47.5838l21.226,0q2.605,0 4.491,1.7688q1.885,1.7689 1.885,4.218q0,6.7644 -6.376,6.7644l-16.872,0l0,-2.799l16.872,0q1.672,0 2.625,-0.8747q0.952,-0.8747 0.952,-3.0907q0,-1.3606 -1.03,-2.2742q-1.03,-0.9136 -2.547,-0.9136l-18.427,0l0,44.7848z"/>
  </g>
 </g>
</svg>