<svg xmlns="http://www.w3.org/2000/svg" xmlns:xlink="http://www.w3.org/1999/xlink" width="258.836853" height="144.473724" viewBox="0 0 258.837 144.474"><path d="M0 30.7321L0 19.271L71.5172 19.271L71.5172 32.5659L41.2599 32.5659L41.2599 30.7321L43.0937 30.7321L43.0937 106.834L28.4235 106.834L28.4235 30.7321L30.2573 30.7321L30.2573 32.5659L0 32.5659L0 30.7321ZM3.66755 30.7321L1.83377 30.7321L1.83377 28.8983L32.0911 28.8983L32.0911 105L30.2573 105L30.2573 103.166L41.2599 103.166L41.2599 105L39.4262 105L39.4262 28.8983L69.6834 28.8983L69.6834 30.7321L67.8497 30.7321L67.8497 21.1048L69.6834 21.1048L69.6834 22.9386L1.83377 22.9386L1.83377 21.1048L3.66755 21.1048L3.66755 30.7321ZM1.83377 30.7321L1.83377 21.1048L69.6834 21.1048L69.6834 30.7321L41.2599 30.7321L41.2599 105L30.2573 105L30.2573 30.7321L1.83377 30.7321ZM133.406 55.4881L133.406 19.271L148.534 19.271L148.534 106.834L133.406 106.834L133.406 66.0323L135.24 66.0323L135.24 67.8661L91.229 67.8661L91.229 66.0323L93.0627 66.0323L93.0627 106.834L77.9341 106.834L77.9341 19.271L93.0627 19.271L93.0627 55.4881L91.229 55.4881L91.229 53.6543L135.24 53.6543L135.24 55.4881L133.406 55.4881ZM137.073 57.3219L89.3952 57.3219L89.3952 21.1048L91.229 21.1048L91.229 22.9386L79.7679 22.9386L79.7679 21.1048L81.6016 21.1048L81.6016 105L79.7679 105L79.7679 103.166L91.229 103.166L91.229 105L89.3952 105L89.3952 64.1985L137.073 64.1985L137.073 105L135.24 105L135.24 103.166L146.701 103.166L146.701 105L144.867 105L144.867 21.1048L146.701 21.1048L146.701 22.9386L135.24 22.9386L135.24 21.1048L137.073 21.1048L137.073 55.4881L137.073 57.3219ZM135.24 55.4881L135.24 21.1048L146.701 21.1048L146.701 105L135.24 105L135.24 66.0323L91.229 66.0323L91.229 105L79.7679 105L79.7679 21.1048L91.229 21.1048L91.229 55.4881L135.24 55.4881ZM219.592 19.271L232.886 19.271L232.886 75.2428L232.885 75.2844Q231.432 107.244 196.72 108.208L196.668 108.21L196.615 108.208Q164.204 107.241 162.747 77.1236L162.745 77.0793L162.745 19.271L177.873 19.271L177.873 73.8258Q178.296 94.9538 197.169 95.3731L197.128 97.2065L197.09 95.3731Q217.758 94.9513 217.758 73.8258L217.758 19.271L219.592 19.271ZM219.592 22.9386L219.592 21.1048L221.425 21.1048L221.425 73.8258Q221.425 98.5447 197.165 99.0398L197.126 99.0406L197.087 99.0398Q174.7 98.5423 174.206 73.8258L174.206 21.1048L176.039 21.1048L176.039 22.9386L164.578 22.9386L164.578 21.1048L166.412 21.1048L166.412 77.0349L164.578 77.0349L166.41 76.9463Q167.703 103.676 196.724 104.542L196.669 106.375L196.618 104.542Q227.923 103.673 229.221 75.1179L231.053 75.2012L229.219 75.2012L229.219 21.1048L231.053 21.1048L231.053 22.9386L219.592 22.9386ZM219.592 21.1048L231.053 21.1048L231.053 75.2012Q229.677 105.458 196.669 106.375Q165.954 105.458 164.578 77.0349L164.578 21.1048L176.039 21.1048L176.039 73.8258Q176.498 96.748 197.128 97.2065Q219.592 96.748 219.592 73.8258L219.592 21.1048Z" fill="#F5F5F5" fill-opacity="1.000000" transform="matrix(1 0 0 1 6.23685 6.23686)"/></svg>