<svg xmlns="http://www.w3.org/2000/svg" xmlns:xlink="http://www.w3.org/1999/xlink" width="146.823715" height="84.473717" viewBox="0 0 146.824 84.4737"><path d="M0 17.5L0 11.25L39 11.25L39 18.5L22.5 18.5L22.5 17.5L23.5 17.5L23.5 59L15.5 59L15.5 17.5L16.5 17.5L16.5 18.5L0 18.5L0 17.5ZM2 17.5L1 17.5L1 16.5L17.5 16.5L17.5 58L16.5 58L16.5 57L22.5 57L22.5 58L21.5 58L21.5 16.5L38 16.5L38 17.5L37 17.5L37 12.25L38 12.25L38 13.25L1 13.25L1 12.25L2 12.25L2 17.5ZM1 17.5L1 12.25L38 12.25L38 17.5L22.5 17.5L22.5 58L16.5 58L16.5 17.5L1 17.5ZM72.75 31L72.75 11.25L81 11.25L81 59L72.75 59L72.75 36.75L73.75 36.75L73.75 37.75L49.75 37.75L49.75 36.75L50.75 36.75L50.75 59L42.5 59L42.5 11.25L50.75 11.25L50.75 31L49.75 31L49.75 30L73.75 30L73.75 31L72.75 31ZM74.75 32L48.75 32L48.75 12.25L49.75 12.25L49.75 13.25L43.5 13.25L43.5 12.25L44.5 12.25L44.5 58L43.5 58L43.5 57L49.75 57L49.75 58L48.75 58L48.75 35.75L74.75 35.75L74.75 58L73.75 58L73.75 57L80 57L80 58L79 58L79 12.25L80 12.25L80 13.25L73.75 13.25L73.75 12.25L74.75 12.25L74.75 31L74.75 32ZM73.75 31L73.75 12.25L80 12.25L80 58L73.75 58L73.75 36.75L49.75 36.75L49.75 58L43.5 58L43.5 12.25L49.75 12.25L49.75 31L73.75 31ZM119.75 11.25L127 11.25L127 41.7727L126.999 41.7954Q126.207 59.2238 107.278 59.7496L107.249 59.7504L107.22 59.7496Q89.5459 59.222 88.7512 42.7983L88.75 42.7742L88.75 11.25L97 11.25L97 41Q97.2306 52.5215 107.522 52.7502L107.5 53.75L107.48 52.7502Q118.75 52.5202 118.75 41L118.75 11.25L119.75 11.25ZM119.75 13.25L119.75 12.25L120.75 12.25L120.75 41Q120.75 54.4798 107.52 54.7498L107.499 54.7502L107.478 54.7498Q95.2694 54.4785 95 41L95 12.25L96 12.25L96 13.25L89.75 13.25L89.75 12.25L90.75 12.25L90.75 42.75L89.75 42.75L90.7488 42.7017Q91.4542 57.278 107.28 57.7504L107.25 58.75L107.222 57.7504Q124.293 57.2762 125.001 41.7046L126 41.75L125 41.75L125 12.25L126 12.25L126 13.25L119.75 13.25ZM119.75 12.25L126 12.25L126 41.75Q125.25 58.25 107.25 58.75Q90.5 58.25 89.75 42.75L89.75 12.25L96 12.25L96 41Q96.25 53.5 107.5 53.75Q119.75 53.5 119.75 41L119.75 12.25Z" fill="#F5F5F5" fill-opacity="1.000000" transform="matrix(1 0 0 1 6.23685 6.23686)"/></svg>